<svg xmlns="http://www.w3.org/2000/svg" viewBox="0 0 960 540" role="img" aria-label="Echo Pulse dashboard preview">
  <defs>
    <linearGradient id="bg" x1="0" x2="1" y1="0" y2="1">
      <stop offset="0" stop-color="#0f172a"/>
      <stop offset="1" stop-color="#111827"/>
    </linearGradient>
  </defs>
  <rect width="960" height="540" rx="24" fill="url(#bg)"/>
  <rect x="36" y="32" width="888" height="64" rx="16" fill="#0b1220" stroke="#1e293b" stroke-width="2"/>
  <circle cx="76" cy="64" r="8" fill="#22c55e"/>
  <circle cx="104" cy="64" r="8" fill="#facc15"/>
  <circle cx="132" cy="64" r="8" fill="#ef4444"/>
  <rect x="180" y="52" width="200" height="24" rx="12" fill="#1d4ed8" opacity="0.8"/>
  <rect x="36" y="120" width="280" height="360" rx="18" fill="#0b1220" stroke="#1e293b" stroke-width="2"/>
  <rect x="60" y="144" width="232" height="32" rx="10" fill="#1e293b"/>
  <rect x="60" y="192" width="232" height="16" rx="8" fill="#1e293b" opacity="0.7"/>
  <rect x="60" y="224" width="232" height="16" rx="8" fill="#1e293b" opacity="0.6"/>
  <rect x="60" y="256" width="232" height="16" rx="8" fill="#1e293b" opacity="0.5"/>
  <rect x="60" y="304" width="232" height="120" rx="12" fill="#111827" stroke="#1e293b"/>
  <rect x="332" y="120" width="592" height="168" rx="18" fill="#0b1220" stroke="#1e293b" stroke-width="2"/>
  <polyline points="360,248 420,208 480,228 540,176 600,212 660,160 720,186 780,170 830,210" fill="none" stroke="#60a5fa" stroke-width="4" stroke-linecap="round" stroke-linejoin="round"/>
  <circle cx="420" cy="208" r="6" fill="#60a5fa"/>
  <circle cx="600" cy="212" r="6" fill="#60a5fa"/>
  <circle cx="780" cy="170" r="6" fill="#60a5fa"/>
  <rect x="332" y="312" width="592" height="168" rx="18" fill="#0b1220" stroke="#1e293b" stroke-width="2"/>
  <rect x="360" y="336" width="120" height="24" rx="12" fill="#1d4ed8" opacity="0.8"/>
  <rect x="360" y="372" width="520" height="12" rx="6" fill="#1e293b"/>
  <rect x="360" y="396" width="420" height="12" rx="6" fill="#1e293b" opacity="0.8"/>
  <rect x="360" y="420" width="320" height="12" rx="6" fill="#1e293b" opacity="0.6"/>
  <rect x="360" y="448" width="240" height="28" rx="12" fill="#22c55e" opacity="0.9"/>
</svg>
