<svg xmlns="http://www.w3.org/2000/svg" viewBox="0 0 280 520" role="img" aria-label="Mobile dashboard">
  <defs>
    <linearGradient id="phone" x1="0" y1="0" x2="1" y2="1">
      <stop offset="0" stop-color="#111827"/>
      <stop offset="1" stop-color="#0f172a"/>
    </linearGradient>
  </defs>
  <rect x="32" y="16" width="216" height="488" rx="32" fill="url(#phone)" stroke="#1f2937" stroke-width="2"/>
  <rect x="64" y="48" width="152" height="8" rx="4" fill="#1d4ed8"/>
  <rect x="64" y="72" width="152" height="24" rx="12" fill="#0b1220" stroke="#1e293b"/>
  <rect x="64" y="112" width="152" height="72" rx="14" fill="#0b1220" stroke="#1e293b"/>
  <rect x="80" y="132" width="120" height="12" rx="6" fill="#cbd5e1" opacity="0.9"/>
  <rect x="80" y="154" width="90" height="12" rx="6" fill="#22c55e"/>
  <rect x="64" y="200" width="152" height="120" rx="16" fill="#0b1220" stroke="#1e293b"/>
  <rect x="80" y="220" width="120" height="12" rx="6" fill="#1d4ed8" opacity="0.85"/>
  <rect x="80" y="244" width="90" height="12" rx="6" fill="#1e293b" opacity="0.8"/>
  <rect x="80" y="268" width="60" height="12" rx="6" fill="#1e293b" opacity="0.6"/>
  <rect x="64" y="336" width="152" height="120" rx="16" fill="#0b1220" stroke="#1e293b"/>
  <rect x="80" y="356" width="120" height="12" rx="6" fill="#cbd5e1" opacity="0.9"/>
  <rect x="80" y="380" width="90" height="12" rx="6" fill="#1e293b" opacity="0.7"/>
  <rect x="80" y="404" width="70" height="12" rx="6" fill="#ef4444" opacity="0.9"/>
  <circle cx="140" cy="472" r="16" fill="#0b1220" stroke="#1e293b"/>
  <circle cx="140" cy="472" r="6" fill="#1d4ed8"/>
</svg>
