<svg xmlns="http://www.w3.org/2000/svg" viewBox="0 0 640 420" role="img" aria-label="Detected negative insights">
  <defs>
    <linearGradient id="card" x1="0" y1="0" x2="1" y2="1">
      <stop offset="0" stop-color="#111827"/>
      <stop offset="1" stop-color="#0b1220"/>
    </linearGradient>
  </defs>
  <rect width="640" height="420" rx="20" fill="url(#card)" stroke="#1e293b" stroke-width="2"/>
  <rect x="36" y="32" width="568" height="48" rx="12" fill="#0f172a" stroke="#1e293b"/>
  <rect x="60" y="48" width="180" height="16" rx="8" fill="#1d4ed8" opacity="0.85"/>
  <rect x="36" y="104" width="568" height="88" rx="14" fill="#0f172a" stroke="#1e293b"/>
  <rect x="60" y="124" width="120" height="12" rx="6" fill="#cbd5e1" opacity="0.8"/>
  <rect x="60" y="148" width="220" height="12" rx="6" fill="#1d4ed8"/>
  <rect x="60" y="172" width="320" height="12" rx="6" fill="#1e293b"/>
  <rect x="36" y="212" width="568" height="176" rx="14" fill="#0f172a" stroke="#1e293b"/>
  <rect x="60" y="236" width="520" height="16" rx="8" fill="#cbd5e1" opacity="0.9"/>
  <rect x="60" y="264" width="380" height="12" rx="6" fill="#1e293b" opacity="0.7"/>
  <rect x="60" y="292" width="320" height="12" rx="6" fill="#1e293b" opacity="0.6"/>
  <rect x="60" y="320" width="260" height="12" rx="6" fill="#ef4444" opacity="0.9"/>
  <rect x="60" y="348" width="200" height="12" rx="6" fill="#1e293b" opacity="0.4"/>
  <rect x="460" y="320" width="120" height="32" rx="10" fill="#ef4444"/>
  <circle cx="500" cy="136" r="10" fill="#22c55e"/>
  <circle cx="532" cy="136" r="10" fill="#facc15"/>
  <circle cx="564" cy="136" r="10" fill="#ef4444"/>
</svg>
