<svg width="1200" height="720" viewBox="0 0 1200 720" fill="none" xmlns="http://www.w3.org/2000/svg">
  <rect width="1200" height="720" rx="24" fill="#0F172A"/>
  <rect x="40" y="40" width="1120" height="64" rx="12" fill="#111827"/>
  <rect x="64" y="60" width="140" height="24" rx="12" fill="#1F2937"/>
  <rect x="224" y="60" width="120" height="24" rx="12" fill="#1F2937"/>
  <rect x="360" y="60" width="96" height="24" rx="12" fill="#1F2937"/>

  <rect x="40" y="128" width="520" height="240" rx="16" fill="#111827"/>
  <rect x="64" y="152" width="200" height="20" rx="10" fill="#1F2937"/>
  <rect x="64" y="188" width="420" height="16" rx="8" fill="#1F2937"/>
  <rect x="64" y="216" width="380" height="16" rx="8" fill="#1F2937"/>
  <rect x="64" y="244" width="340" height="16" rx="8" fill="#1F2937"/>
  <rect x="64" y="284" width="140" height="10" rx="5" fill="#4F46E5"/>
  <rect x="210" y="284" width="160" height="10" rx="5" fill="#334155"/>

  <rect x="600" y="128" width="560" height="240" rx="16" fill="#111827"/>
  <rect x="624" y="152" width="200" height="20" rx="10" fill="#1F2937"/>
  <rect x="624" y="188" width="480" height="120" rx="12" fill="#0B1220"/>
  <path d="M640 284C720 240 820 260 900 220C980 180 1040 200 1080 160" stroke="#4F46E5" stroke-width="4" fill="none"/>

  <rect x="40" y="392" width="1120" height="288" rx="16" fill="#0B1220"/>
  <rect x="64" y="420" width="220" height="18" rx="9" fill="#1F2937"/>
  <rect x="64" y="456" width="1040" height="12" rx="6" fill="#111827"/>
  <rect x="64" y="478" width="1040" height="12" rx="6" fill="#111827"/>
  <rect x="64" y="500" width="1040" height="12" rx="6" fill="#111827"/>
  <rect x="64" y="522" width="820" height="12" rx="6" fill="#111827"/>

  <circle cx="1120" cy="68" r="10" fill="#4F46E5"/>
</svg>
