<svg width="800" height="640" viewBox="0 0 800 640" fill="none" xmlns="http://www.w3.org/2000/svg">
  <rect width="800" height="640" rx="20" fill="#0F172A"/>
  <rect x="32" y="32" width="736" height="72" rx="12" fill="#111827"/>
  <rect x="56" y="56" width="160" height="24" rx="12" fill="#1F2937"/>
  <rect x="232" y="56" width="120" height="24" rx="12" fill="#1F2937"/>

  <rect x="32" y="128" width="736" height="180" rx="16" fill="#0B1220"/>
  <rect x="56" y="156" width="260" height="18" rx="9" fill="#1F2937"/>
  <rect x="56" y="188" width="680" height="12" rx="6" fill="#111827"/>
  <rect x="56" y="210" width="640" height="12" rx="6" fill="#111827"/>

  <rect x="32" y="332" width="736" height="276" rx="16" fill="#111827"/>
  <rect x="56" y="360" width="200" height="16" rx="8" fill="#1F2937"/>
  <rect x="56" y="392" width="680" height="10" rx="5" fill="#1F2937"/>
  <rect x="56" y="416" width="640" height="10" rx="5" fill="#1F2937"/>
  <rect x="56" y="440" width="560" height="10" rx="5" fill="#1F2937"/>
  <rect x="56" y="472" width="220" height="8" rx="4" fill="#4F46E5"/>
  <rect x="290" y="472" width="180" height="8" rx="4" fill="#334155"/>

  <circle cx="720" cy="68" r="10" fill="#4F46E5"/>
</svg>
